<?xml version="1.0" standalone="no"?>
<!DOCTYPE svg PUBLIC "-//W3C//DTD SVG 20010904//EN"
 "http://www.w3.org/TR/2001/REC-SVG-20010904/DTD/svg10.dtd">
<svg version="1.0" xmlns="http://www.w3.org/2000/svg"
 width="594.000000pt" height="594.000000pt" viewBox="0 0 594.000000 594.000000"
 preserveAspectRatio="xMidYMid meet">
<metadata>
Created by potrace 1.11, written by Peter Selinger 2001-2013
</metadata>
<g transform="translate(0.000000,594.000000) scale(0.100000,-0.100000)"
fill="#000000" stroke="none">
<path d="M1060 5880 c-96 -33 -212 -78 -257 -101 -94 -47 -200 -138 -239 -205
-14 -24 -30 -44 -35 -44 -23 0 -31 -68 -35 -270 -6 -393 -14 -5164 -8 -5201 4
-25 13 -40 29 -47 17 -8 371 -9 1227 -5 1737 8 2609 9 2638 2 14 -4 32 -3 41
2 9 5 67 9 128 10 164 2 161 -3 161 200 l0 159 56 32 c148 88 187 96 447 100
l208 3 19 25 c22 27 21 -171 5 2445 -2 363 -6 1137 -10 1720 -3 583 -8 1079
-11 1103 -9 69 -15 70 -349 72 -160 0 -378 3 -485 5 -107 2 -382 7 -610 10
-228 3 -512 8 -630 10 -118 2 -379 6 -580 10 -201 3 -480 8 -620 10 -140 3
-403 7 -585 10 l-330 5 -175 -60z"/>
</g>
</svg>
